<?xml version="1.0" encoding="UTF-8"?><svg id="Layer_1" xmlns="http://www.w3.org/2000/svg" viewBox="0 0 208 26.28"><defs><style>.cls-1{fill:#fff;}</style></defs><path class="cls-1" d="M12.44,9.87c1.23,1.4,1.85,3.24,1.85,5.52s-.65,4.16-1.95,5.64c-1.26,1.42-2.83,2.13-4.71,2.13-.9,0-1.73-.24-2.48-.72s-1.35-1.22-1.78-2.22l-.87,2.52H.19V2.16H3.73v7.83c.92-1.48,2.29-2.22,4.12-2.22s3.36,.7,4.59,2.1ZM3.73,14.55v1.92c.04,1.02,.41,1.86,1.11,2.52,.66,.64,1.46,.96,2.42,.96s1.76-.42,2.44-1.25c.68-.83,1.02-1.92,1.02-3.28s-.33-2.45-1-3.26c-.67-.81-1.5-1.21-2.5-1.21s-1.83,.33-2.49,.99-.99,1.53-.99,2.61Z"/><path class="cls-1" d="M23.41,14.22c1.16,0,2.5,.19,4.02,.57v-1.44c0-1.02-.21-1.77-.61-2.26-.41-.49-1.08-.74-2.01-.74s-1.65,.19-2.15,.56-.75,.9-.75,1.58h-3.87c0-1.66,.58-2.86,1.75-3.6,1.17-.74,2.8-1.11,4.9-1.11,3,0,4.94,1.05,5.82,3.15,.3,.72,.45,1.57,.45,2.55v9.27h-3.09l-.27-1.95c-.94,1.58-2.38,2.37-4.32,2.37s-3.34-.46-4.38-1.38c-.96-.88-1.44-2-1.44-3.35s.53-2.39,1.59-3.12c1.06-.73,2.51-1.1,4.35-1.1Zm4.02,2.82c-1.18-.32-2.28-.48-3.3-.48-1.92,0-2.88,.64-2.88,1.92,0,.54,.22,1,.66,1.39,.44,.39,1.15,.59,2.12,.59s1.77-.33,2.4-.98,.96-1.46,1-2.45Z"/><path class="cls-1" d="M38.11,18.3c.04,1.38,1.05,2.07,3.03,2.07,.76,0,1.38-.17,1.88-.5,.49-.33,.74-.71,.74-1.15s-.15-.78-.45-1.02c-.3-.24-.77-.46-1.41-.66l-3.18-1.14c-2.36-.82-3.54-2.16-3.54-4.02,0-1.24,.55-2.24,1.67-2.99,1.11-.75,2.6-1.12,4.47-1.12s3.31,.41,4.32,1.23c1.01,.82,1.53,1.85,1.57,3.09h-3.33c-.04-.48-.27-.86-.69-1.14-.42-.28-1.02-.42-1.8-.42s-1.39,.16-1.81,.46c-.43,.31-.65,.67-.65,1.06,0,.7,.59,1.22,1.77,1.56l3.45,1.29c1.14,.38,2.01,.87,2.62,1.46,.61,.59,.92,1.35,.92,2.29,0,1.2-.57,2.24-1.71,3.12-1.18,.92-2.74,1.38-4.68,1.38s-3.5-.42-4.68-1.27c-1.18-.85-1.78-2.04-1.8-3.58h3.3Z"/><path class="cls-1" d="M63.23,12.12c.25,.84,.38,1.61,.38,2.31s-.04,1.33-.12,1.89h-9.42c.04,1.18,.33,2.14,.87,2.88,.54,.74,1.36,1.11,2.46,1.11,1.46,0,2.33-.64,2.61-1.92h3.57c-.24,1.46-.91,2.61-2.01,3.45-1.14,.88-2.53,1.32-4.17,1.32-1.92,0-3.53-.7-4.83-2.1-1.34-1.46-2.01-3.33-2.01-5.61s.67-4.22,2.01-5.64c1.28-1.36,2.89-2.04,4.83-2.04s3.59,.71,4.71,2.13c.5,.64,.88,1.38,1.12,2.22Zm-5.8-1.53c-1,0-1.78,.33-2.34,.98-.56,.65-.89,1.48-.99,2.5h6.21c0-1.58-.5-2.64-1.5-3.18-.38-.2-.84-.3-1.38-.3Z"/></svg>